<svg width="44" height="44" viewBox="0 0 44 44" fill="none" xmlns="http://www.w3.org/2000/svg">
<g clip-path="url(#clip0_46_879)">
<path d="M20.1667 22.0001C20.1667 22.4863 20.3598 22.9526 20.7036 23.2964C21.0475 23.6403 21.5138 23.8334 22 23.8334C22.4862 23.8334 22.9525 23.6403 23.2964 23.2964C23.6402 22.9526 23.8333 22.4863 23.8333 22.0001C23.8333 21.5139 23.6402 21.0475 23.2964 20.7037C22.9525 20.3599 22.4862 20.1667 22 20.1667C21.5138 20.1667 21.0475 20.3599 20.7036 20.7037C20.3598 21.0475 20.1667 21.5139 20.1667 22.0001Z" fill="#e1ffff" stroke="#e1ffff" stroke-width="2.75" stroke-linecap="round" stroke-linejoin="round"/>
<path d="M20.1667 34.8333C20.1667 35.3196 20.3598 35.7859 20.7036 36.1297C21.0475 36.4735 21.5138 36.6667 22 36.6667C22.4862 36.6667 22.9525 36.4735 23.2964 36.1297C23.6402 35.7859 23.8333 35.3196 23.8333 34.8333C23.8333 34.3471 23.6402 33.8808 23.2964 33.537C22.9525 33.1932 22.4862 33 22 33C21.5138 33 21.0475 33.1932 20.7036 33.537C20.3598 33.8808 20.1667 34.3471 20.1667 34.8333Z" fill="#e1ffff" stroke="#e1ffff" stroke-width="2.75" stroke-linecap="round" stroke-linejoin="round"/>
<path d="M20.1667 9.16659C20.1667 9.65282 20.3598 10.1191 20.7036 10.4629C21.0475 10.8068 21.5138 10.9999 22 10.9999C22.4862 10.9999 22.9525 10.8068 23.2964 10.4629C23.6402 10.1191 23.8333 9.65282 23.8333 9.16659C23.8333 8.68036 23.6402 8.21404 23.2964 7.87022C22.9525 7.52641 22.4862 7.33325 22 7.33325C21.5138 7.33325 21.0475 7.52641 20.7036 7.87022C20.3598 8.21404 20.1667 8.68036 20.1667 9.16659Z" fill="#e1ffff" stroke="#e1ffff" stroke-width="2.75" stroke-linecap="round" stroke-linejoin="round"/>
</g>
<defs>
<clipPath id="clip0_46_879">
<rect width="44" height="44" fill="#e1ffff"/>
</clipPath>
</defs>
</svg>
