<svg width="29" height="25" viewBox="0 0 29 25" fill="none" xmlns="http://www.w3.org/2000/svg">
<path d="M10.9243 2.60941C9.93789 2.39897 8.70489 2.18854 7.7185 2.18854C6.7321 2.18854 5.49911 2.39897 4.51271 2.60941C3.64962 2.71463 3.03312 3.34594 2.90982 4.08247C2.78652 4.92422 2.41663 6.60772 2.41663 7.76513C2.41663 8.92254 2.66322 10.3956 2.78652 11.4478C2.90982 12.1843 3.52632 12.8156 4.38941 12.9208C5.25251 13.1313 6.60881 13.2365 7.59519 13.2365C8.58159 13.2365 9.81459 13.0261 10.801 12.9208C11.6641 12.8156 12.2806 12.1843 12.4039 11.4478C12.6505 10.3956 12.7737 8.92254 12.7737 7.76513C12.7737 6.60772 12.5271 4.92422 12.4039 4.08247C12.4039 3.34594 11.7874 2.71463 10.9243 2.60941Z" fill="#e1ffff"/>
<path d="M24.4873 12.0789C23.6242 11.8685 22.2679 11.7633 21.2816 11.7633C20.2951 11.7633 19.0621 11.9737 18.0758 12.0789C17.2126 12.1841 16.5961 12.8155 16.4729 13.5521C16.2263 14.6042 16.1029 16.0773 16.1029 17.2347C16.1029 18.3921 16.3495 19.8652 16.4729 20.9174C16.5961 21.6538 17.2126 22.2852 18.0758 22.3904C18.9389 22.6008 20.2951 22.706 21.2816 22.706C22.2679 22.706 23.5009 22.4956 24.4873 22.3904C25.3504 22.2852 25.9669 21.6538 26.0901 20.9174C26.3368 19.8652 26.4601 18.3921 26.4601 17.2347C26.4601 16.0773 26.3368 14.6042 26.0901 13.5521C25.9669 12.8155 25.3504 12.1841 24.4873 12.0789Z" fill="#e1ffff"/>
<path d="M11.0476 16.2877C10.0612 16.0773 8.82819 15.9721 7.7185 15.9721C6.60881 15.9721 5.37581 16.1825 4.38941 16.2877C3.64962 16.3929 3.03312 16.9191 2.78652 17.5503C2.53992 18.2869 2.41663 18.9183 2.41663 19.4443C2.41663 19.9704 2.53992 20.4965 2.78652 21.3383C3.03312 21.9696 3.64962 22.3904 4.38941 22.6009C5.37581 22.8114 6.60881 22.9166 7.7185 22.9166C8.82819 22.9166 10.0612 22.7061 11.0476 22.6009C11.7874 22.4956 12.4039 21.9696 12.6505 21.3383C12.8971 20.6017 13.0204 19.9704 13.0204 19.4443C13.0204 18.9183 12.8971 18.3921 12.6505 17.5503C12.4039 16.8139 11.7874 16.3929 11.0476 16.2877Z" fill="#e1ffff"/>
<path d="M17.9523 8.71203C18.9388 8.92248 20.1718 9.0277 21.2814 9.0277C22.3912 9.0277 23.6241 8.81726 24.6105 8.71203C25.3504 8.60681 25.9669 8.08072 26.2135 7.44941C26.4601 6.71288 26.5833 6.08156 26.5833 5.55547C26.5833 5.02938 26.4601 4.50328 26.2135 3.66153C25.9669 3.03022 25.3504 2.60935 24.6105 2.39891C23.6241 2.18847 22.3912 2.08325 21.2814 2.08325C20.1718 2.08325 18.9388 2.29369 17.9523 2.39891C17.2126 2.50413 16.5961 3.03022 16.3495 3.66153C16.1029 4.39806 15.9796 5.02938 15.9796 5.55547C15.9796 6.08156 16.1029 6.60766 16.3495 7.44941C16.5961 8.18594 17.2126 8.60681 17.9523 8.71203Z" fill="#e1ffff"/>
</svg>
