<svg width="31" height="26" viewBox="0 0 31 26" fill="none" xmlns="http://www.w3.org/2000/svg">
<path d="M26.4792 4.99311C25.7721 4.27551 24.884 3.69838 23.8789 3.3033C22.8738 2.90822 21.7767 2.70503 20.6667 2.70836C18.7675 2.66013 16.9185 3.22423 15.5001 4.28461C14.0816 3.22423 12.2326 2.66013 10.3334 2.70836C9.22339 2.70503 8.12633 2.90822 7.12124 3.3033C6.11614 3.69838 5.22803 4.27551 4.52089 4.99311C3.28993 6.24545 2.00214 8.51286 2.85593 12.2081C4.21864 18.109 14.437 22.9515 14.8684 23.1498C15.0607 23.2397 15.2773 23.2869 15.4975 23.2869C15.7177 23.2869 15.9342 23.2397 16.1265 23.1498C16.5605 22.9472 26.7789 18.1047 28.139 12.2081C28.998 8.51286 27.7102 6.24545 26.4792 4.99311ZM25.6086 11.7964C24.6451 15.9684 17.6416 19.8489 15.5001 20.9517C12.4827 19.4242 6.27497 15.5892 5.39793 11.7964C4.73531 8.92994 5.64206 7.26486 6.52039 6.37219C6.98488 5.90215 7.56765 5.52414 8.22688 5.2653C8.88612 5.00645 9.60549 4.87317 10.3334 4.87503C11.1108 4.82613 11.8901 4.94702 12.5953 5.22593C13.3004 5.50483 13.9074 5.93223 14.3569 6.46644C14.4678 6.63754 14.6313 6.78057 14.8305 6.88062C15.0297 6.98068 15.2572 7.0341 15.4894 7.03531C15.7216 7.03653 15.9499 6.9855 16.1505 6.88754C16.3512 6.78958 16.5169 6.64828 16.6303 6.47836C17.079 5.93998 17.6872 5.50897 18.395 5.22782C19.1028 4.94666 19.8858 4.82507 20.6667 4.87503C21.3961 4.87205 22.1173 5.00479 22.7782 5.26367C23.4391 5.52256 24.0233 5.90116 24.4888 6.37219C25.3645 7.26486 26.2713 8.92994 25.6086 11.7964Z" fill="#e1ffff"/>
</svg>
