<svg width="31" height="23" viewBox="0 0 31 23" fill="none" xmlns="http://www.w3.org/2000/svg">
<path d="M6.44093 15.258L7.4391 16.3776L7.43911 16.3776L6.44093 15.258ZM10.4737 12.6181L10.3681 11.1218L10.3679 11.1218L10.4737 12.6181ZM11.3261 12.6575L11.0816 14.1375L11.0818 14.1375L11.3261 12.6575ZM14.9684 15.6527L16.089 14.6555L16.0889 14.6554L14.9684 15.6527ZM15.5309 16.2848L14.4103 17.2819L14.4103 17.282L15.5309 16.2848ZM16.2047 16.9515L15.417 18.2281L15.4176 18.2284L16.2047 16.9515ZM17.9003 17.0139L18.5798 18.3512L18.5801 18.351L17.9003 17.0139ZM18.6447 16.3994L19.6685 17.4957L19.6686 17.4956L18.6447 16.3994ZM20.2491 15.0786L19.5871 13.7326L19.5869 13.7327L20.2491 15.0786ZM23.7747 15.3363L24.6491 14.1175L24.6487 14.1172L23.7747 15.3363ZM25.0668 16.8688L26.276 15.9811L26.2759 15.981L25.0668 16.8688ZM6.5 8.12903C6.5 8.95746 7.17157 9.62903 8 9.62903C8.82843 9.62903 9.5 8.95746 9.5 8.12903H6.5ZM9.5 2C9.5 1.17157 8.82843 0.5 8 0.5C7.17157 0.5 6.5 1.17157 6.5 2H9.5ZM21.5 8.12903C21.5 8.95746 22.1716 9.62903 23 9.62903C23.8284 9.62903 24.5 8.95746 24.5 8.12903H21.5ZM24.5 2C24.5 1.17157 23.8284 0.5 23 0.5C22.1716 0.5 21.5 1.17157 21.5 2H24.5ZM3.5 5.06452C3.5 4.23609 2.82843 3.56452 2 3.56452C1.17157 3.56452 0.5 4.23609 0.5 5.06452H3.5ZM30.5 5.06452C30.5 4.23609 29.8284 3.56452 29 3.56452C28.1716 3.56452 27.5 4.23609 27.5 5.06452H30.5ZM23.2998 0.536751C22.4849 0.387582 21.7034 0.927253 21.5542 1.74214C21.405 2.55703 21.9447 3.33855 22.7596 3.48772L23.2998 0.536751ZM28.2218 3.83399L29.1348 2.64389L29.1348 2.64383L28.2218 3.83399ZM28.41 6.13973L27.4123 5.01971L27.4122 5.0198L28.41 6.13973ZM15.4763 8.74193L15.4756 10.2419L15.4756 10.2419L15.4763 8.74193ZM7.44134 8.01486L7.7393 6.54475L7.7393 6.54475L7.44134 8.01486ZM2.57612 6.12735L1.57126 7.24102L1.57127 7.24102L2.57612 6.12735ZM8.27791 3.48088C9.093 3.33282 9.63372 2.55202 9.48565 1.73694C9.33759 0.92185 8.5568 0.381123 7.74171 0.529191L8.27791 3.48088ZM25.046 19.9229L25.4402 21.3702L25.4402 21.3701L25.046 19.9229ZM3.74817 19.6681L7.4391 16.3776L5.44276 14.1383L1.75183 17.4287L3.74817 19.6681ZM7.43911 16.3776C8.42232 15.5011 9.06385 14.9324 9.59832 14.5583C10.1012 14.2063 10.3703 14.1291 10.5794 14.1143L10.3679 11.1218C9.4132 11.1893 8.62232 11.5795 7.8779 12.1006C7.1651 12.5996 6.37215 13.3097 5.44275 14.1383L7.43911 16.3776ZM10.5792 14.1143C10.7482 14.1024 10.9177 14.1104 11.0816 14.1375L11.5707 11.1776C11.1737 11.112 10.7691 11.0935 10.3681 11.1218L10.5792 14.1143ZM11.0818 14.1375C11.2773 14.1698 11.5213 14.264 11.9624 14.6514C12.4362 15.0676 12.9904 15.6863 13.8479 16.6499L16.0889 14.6554C15.2816 13.7483 14.5872 12.964 13.9423 12.3975C13.2646 11.8023 12.52 11.3343 11.5705 11.1776L11.0818 14.1375ZM13.8478 16.6498L14.4103 17.2819L16.6515 15.2877L16.089 14.6555L13.8478 16.6498ZM14.4103 17.282C14.6686 17.5723 15.0047 17.9737 15.417 18.2281L16.9924 15.675C17.0493 15.7101 17.06 15.7311 16.9937 15.6638C16.9215 15.5904 16.8265 15.4843 16.6515 15.2876L14.4103 17.282ZM15.4176 18.2284C16.3662 18.8132 17.5961 18.851 18.5798 18.3512L17.2208 15.6766C17.1512 15.712 17.0335 15.7003 16.9918 15.6746L15.4176 18.2284ZM18.5801 18.351C19.0068 18.1341 19.3756 17.7693 19.6685 17.4957L17.621 15.3031C17.4254 15.4858 17.3174 15.586 17.2355 15.6554C17.1597 15.7196 17.1673 15.7038 17.2205 15.6768L18.5801 18.351ZM19.6686 17.4956C20.5538 16.6689 20.7601 16.499 20.9114 16.4245L19.5869 13.7327C18.9345 14.0537 18.3389 14.6326 17.6209 15.3032L19.6686 17.4956ZM20.9112 16.4246C21.5535 16.1087 22.3866 16.1868 22.9008 16.5554L24.6487 14.1172C23.2 13.0786 21.1819 12.9482 19.5871 13.7326L20.9112 16.4246ZM22.9004 16.5551C23.0095 16.6334 23.1587 16.8046 23.8578 17.7566L26.2759 15.981C25.7222 15.2269 25.245 14.545 24.6491 14.1175L22.9004 16.5551ZM23.8577 17.7565L25.5409 20.049L27.9591 18.2736L26.276 15.9811L23.8577 17.7565ZM9.5 8.12903V2H6.5V8.12903H9.5ZM24.5 8.12903V2H21.5V8.12903H24.5ZM3.5 17.3226V5.06452H0.5V17.3226H3.5ZM27.5 5.06452V17.3226H30.5V5.06452H27.5ZM22.7596 3.48772C25.118 3.91943 26.6377 4.50933 27.3088 5.02415L29.1348 2.64383C27.8682 1.67224 25.7474 0.984802 23.2998 0.536751L22.7596 3.48772ZM27.3087 5.02409C27.3816 5.07999 27.4345 5.12774 27.4717 5.16572C27.509 5.20374 27.5274 5.2287 27.5343 5.23892C27.5409 5.24877 27.5347 5.24171 27.5256 5.21737C27.5161 5.19206 27.5056 5.1536 27.5016 5.10487C27.4976 5.05572 27.5012 5.00813 27.51 4.96628C27.5186 4.92532 27.5302 4.89928 27.5351 4.88951C27.5397 4.88048 27.537 4.88843 27.5178 4.91211C27.4986 4.93593 27.4654 4.97238 27.4123 5.01971L29.4078 7.25976C30.025 6.70991 30.5762 5.89553 30.4917 4.8606C30.4106 3.8676 29.7768 3.13641 29.1348 2.64389L27.3087 5.02409ZM27.4122 5.0198C26.8861 5.48855 25.5207 6.09008 23.2246 6.55204L23.8164 9.4931C26.178 9.01795 28.2411 8.29932 29.4079 7.25966L27.4122 5.0198ZM23.2246 6.55204C21.0118 6.99723 18.2933 7.24325 15.477 7.24194L15.4756 10.2419C18.4496 10.2433 21.3714 9.98501 23.8164 9.4931L23.2246 6.55204ZM15.477 7.24194C12.6605 7.24058 9.94557 6.99192 7.7393 6.54475L7.14338 9.48497C9.5827 9.97937 12.5015 10.2405 15.4756 10.2419L15.477 7.24194ZM7.7393 6.54475C5.44822 6.0804 4.09569 5.4781 3.58097 5.01368L1.57127 7.24102C2.73007 8.2866 4.78883 9.00775 7.14338 9.48497L7.7393 6.54475ZM3.58098 5.01369C3.52941 4.96716 3.49773 4.93173 3.47981 4.90916C3.46201 4.88675 3.46035 4.88026 3.46555 4.89084C3.47114 4.90219 3.48282 4.92962 3.4911 4.97161C3.49955 5.01446 3.50242 5.06235 3.49782 5.11105C3.49325 5.15926 3.48248 5.19664 3.47325 5.22044C3.4644 5.2433 3.45888 5.24884 3.46663 5.23753C3.47461 5.2259 3.49441 5.19972 3.5332 5.16073C3.57193 5.12178 3.62638 5.07327 3.70081 5.01681L1.8876 2.62678C1.2432 3.11566 0.604604 3.84052 0.511147 4.82854C0.413134 5.86472 0.9558 6.68569 1.57126 7.24102L3.58098 5.01369ZM3.70081 5.01681C4.38329 4.49904 5.91462 3.9102 8.27791 3.48088L7.74171 0.529191C5.28757 0.975006 3.1619 1.66002 1.8876 2.62678L3.70081 5.01681ZM27.5 17.3226C27.5 17.0319 27.6943 17.1174 27.1482 17.4766C26.6624 17.7961 25.8433 18.1511 24.6518 18.4756L25.4402 21.3701C26.7804 21.0051 27.9383 20.5475 28.7966 19.9831C29.5946 19.4583 30.5 18.5885 30.5 17.3226H27.5ZM24.6518 18.4756C22.2854 19.1202 18.992 19.5 15.5 19.5V22.5C19.1687 22.5 22.7429 22.1049 25.4402 21.3702L24.6518 18.4756ZM15.5 19.5C12.008 19.5 8.71452 19.1202 6.34829 18.4756L5.55983 21.3702C8.25709 22.1049 11.8312 22.5 15.5 22.5V19.5ZM6.34829 18.4756C5.15677 18.151 4.33765 17.7961 3.85183 17.4766C3.30571 17.1174 3.5 17.0319 3.5 17.3226H0.5C0.5 18.5885 1.40545 19.4583 2.20342 19.9831C3.0617 20.5475 4.21961 21.0051 5.55983 21.3702L6.34829 18.4756Z" fill="#e1ffff"/>
</svg>
