<svg width="10" height="16" viewBox="0 0 10 16" fill="none" xmlns="http://www.w3.org/2000/svg">
<path d="M0.279337 0.247029C0.651787 -0.0823432 1.25565 -0.0823431 1.6281 0.247029L9.72066 7.40361C10.0931 7.73298 10.0931 8.267 9.72066 8.59637C9.34821 8.92575 6.09476 9.6069 5.72231 9.27752L0.279338 1.43979C-0.0931124 1.11042 -0.0931126 0.576402 0.279337 0.247029Z" fill="#e1ffff"/>
<path d="M0.279337 0.247029C0.651787 -0.0823432 1.25565 -0.0823431 1.6281 0.247029L9.72066 7.40361C10.0931 7.73298 10.0931 8.267 9.72066 8.59637C9.34821 8.92575 6.09476 9.6069 5.72231 9.27752L0.279338 1.43979C-0.0931124 1.11042 -0.0931126 0.576402 0.279337 0.247029Z" fill="#e1ffff"/>
<path d="M0.279396 15.753C-0.0930538 15.4236 -0.0930538 14.8896 0.279396 14.5602L5.72231 5.90388C6.09476 5.57451 9.34821 7.07424 9.72066 7.40361C10.0931 7.73298 10.0931 8.267 9.72066 8.59637L1.62816 15.753C1.25571 16.0823 0.651846 16.0823 0.279396 15.753Z" fill="#e1ffff"/>
<path d="M0.279396 15.753C-0.0930538 15.4236 -0.0930538 14.8896 0.279396 14.5602L5.72231 5.90388C6.09476 5.57451 9.34821 7.07424 9.72066 7.40361C10.0931 7.73298 10.0931 8.267 9.72066 8.59637L1.62816 15.753C1.25571 16.0823 0.651846 16.0823 0.279396 15.753Z" fill="#e1ffff"/>
</svg>
