<svg width="6" height="7" viewBox="0 0 6 7" fill="none" xmlns="http://www.w3.org/2000/svg">
<path d="M0.111735 0.108075C0.260715 -0.0360251 0.502259 -0.0360251 0.651239 0.108075L3.88826 3.23908C4.03724 3.38318 4.03724 3.61681 3.88826 3.76091C3.73928 3.90501 2.4379 4.20302 2.28892 4.05892L0.111735 0.62991C-0.037245 0.485809 -0.0372451 0.252176 0.111735 0.108075Z" fill="#e1ffff"/>
<path d="M0.111735 0.108075C0.260715 -0.0360251 0.502259 -0.0360251 0.651239 0.108075L3.88826 3.23908C4.03724 3.38318 4.03724 3.61681 3.88826 3.76091C3.73928 3.90501 2.4379 4.20302 2.28892 4.05892L0.111735 0.62991C-0.037245 0.485809 -0.0372451 0.252176 0.111735 0.108075Z" fill="#e1ffff"/>
<path d="M0.111758 6.89192C-0.0372215 6.74782 -0.0372215 6.51419 0.111758 6.37009L2.28892 2.58295C2.4379 2.43885 3.73928 3.09498 3.88826 3.23908C4.03724 3.38318 4.03724 3.61681 3.88826 3.76091L0.651263 6.89192C0.502283 7.03603 0.260738 7.03603 0.111758 6.89192Z" fill="#e1ffff"/>
<path d="M0.111758 6.89192C-0.0372215 6.74782 -0.0372215 6.51419 0.111758 6.37009L2.28892 2.58295C2.4379 2.43885 3.73928 3.09498 3.88826 3.23908C4.03724 3.38318 4.03724 3.61681 3.88826 3.76091L0.651263 6.89192C0.502283 7.03603 0.260738 7.03603 0.111758 6.89192Z" fill="#e1ffff"/>
<path d="M0.111735 0.108075C0.260715 -0.0360251 0.502259 -0.0360251 0.651239 0.108075L3.88826 3.23908C4.03724 3.38318 4.03724 3.61681 3.88826 3.76091C3.73928 3.90501 2.4379 4.20302 2.28892 4.05892L0.111735 0.62991C-0.037245 0.485809 -0.0372451 0.252176 0.111735 0.108075Z" fill="#e1ffff"/>
<path d="M0.111735 0.108075C0.260715 -0.0360251 0.502259 -0.0360251 0.651239 0.108075L3.88826 3.23908C4.03724 3.38318 4.03724 3.61681 3.88826 3.76091C3.73928 3.90501 2.4379 4.20302 2.28892 4.05892L0.111735 0.62991C-0.037245 0.485809 -0.0372451 0.252176 0.111735 0.108075Z" fill="#e1ffff"/>
<path d="M0.111758 6.89192C-0.0372215 6.74782 -0.0372215 6.51419 0.111758 6.37009L2.28892 2.58295C2.4379 2.43885 3.73928 3.09498 3.88826 3.23908C4.03724 3.38318 4.03724 3.61681 3.88826 3.76091L0.651263 6.89192C0.502283 7.03603 0.260738 7.03603 0.111758 6.89192Z" fill="#e1ffff"/>
<path d="M0.111758 6.89192C-0.0372215 6.74782 -0.0372215 6.51419 0.111758 6.37009L2.28892 2.58295C2.4379 2.43885 3.73928 3.09498 3.88826 3.23908C4.03724 3.38318 4.03724 3.61681 3.88826 3.76091L0.651263 6.89192C0.502283 7.03603 0.260738 7.03603 0.111758 6.89192Z" fill="#e1ffff"/>
<path d="M5.88827 0.108075C5.73929 -0.0360251 5.49774 -0.0360251 5.34876 0.108075L2.11174 3.23908C1.96276 3.38318 1.96276 3.61681 2.11174 3.76091C2.26072 3.90501 3.5621 4.20302 3.71108 4.05892L5.88827 0.62991C6.03725 0.485809 6.03725 0.252176 5.88827 0.108075Z" fill="#e1ffff"/>
<path d="M5.88827 0.108075C5.73929 -0.0360251 5.49774 -0.0360251 5.34876 0.108075L2.11174 3.23908C1.96276 3.38318 1.96276 3.61681 2.11174 3.76091C2.26072 3.90501 3.5621 4.20302 3.71108 4.05892L5.88827 0.62991C6.03725 0.485809 6.03725 0.252176 5.88827 0.108075Z" fill="#e1ffff"/>
<path d="M5.88824 6.89192C6.03722 6.74782 6.03722 6.51419 5.88824 6.37009L3.71108 2.58295C3.5621 2.43885 2.26072 3.09498 2.11174 3.23908C1.96276 3.38318 1.96276 3.61681 2.11174 3.76091L5.34874 6.89192C5.49772 7.03603 5.73926 7.03603 5.88824 6.89192Z" fill="#e1ffff"/>
<path d="M5.88824 6.89192C6.03722 6.74782 6.03722 6.51419 5.88824 6.37009L3.71108 2.58295C3.5621 2.43885 2.26072 3.09498 2.11174 3.23908C1.96276 3.38318 1.96276 3.61681 2.11174 3.76091L5.34874 6.89192C5.49772 7.03603 5.73926 7.03603 5.88824 6.89192Z" fill="#e1ffff"/>
</svg>
