<svg width="31" height="28" viewBox="0 0 31 28" fill="none" xmlns="http://www.w3.org/2000/svg">
<path d="M12.9619 21.0805C14.7445 21.082 16.497 20.666 18.0485 19.873L22.3523 23.7604C22.8766 24.2339 23.5877 24.5 24.3292 24.5C25.0707 24.5 25.7818 24.2339 26.3061 23.7604C26.8304 23.2868 27.1249 22.6445 27.1249 21.9748C27.1249 21.3051 26.8304 20.6628 26.3061 20.1892L22.0022 16.3019C23.233 14.3283 23.6306 12.0188 23.1215 9.80079C22.6124 7.58281 21.2311 5.60646 19.2331 4.23746C17.2351 2.86846 14.7557 2.19949 12.2537 2.35433C9.75171 2.50917 7.39651 3.47734 5.62392 5.07969C4.17258 6.39053 3.1842 8.06066 2.78377 9.87888C2.38334 11.6971 2.58884 13.5817 3.37429 15.2945C4.15974 17.0072 5.48986 18.4711 7.19644 19.501C8.90302 20.5309 10.9094 21.0806 12.9619 21.0805ZM7.45033 6.72936C8.72539 5.57823 10.4029 4.86201 12.197 4.70272C13.9912 4.54344 15.7909 4.95096 17.2897 5.85583C18.7885 6.76071 19.8936 8.10697 20.4167 9.66524C20.9398 11.2235 20.8485 12.8974 20.1584 14.4017C19.4683 15.906 18.2221 17.1477 16.6322 17.9151C15.0422 18.6826 13.2068 18.9284 11.4386 18.6107C9.67051 18.2929 8.07905 17.4313 6.9354 16.1725C5.79176 14.9138 5.16668 13.3358 5.16667 11.7075C5.16354 10.7825 5.36379 9.86616 5.75581 9.0116C6.14783 8.15704 6.7238 7.3813 7.45033 6.72936Z" fill="#e1ffff"/>
</svg>
