<svg width="25" height="26" viewBox="0 0 25 26" fill="none" xmlns="http://www.w3.org/2000/svg">
<g clip-path="url(#clip0_13_20)">
<path d="M22.699 16.3333L19.9811 12.2826V11.1887V10.5867V5.14969C19.9811 4.79651 19.8485 4.46441 19.6085 4.21525L15.9275 0.386646C15.6874 0.137055 15.3678 0 15.0293 0H3.95132C2.75793 0 1.78748 1.0097 1.78748 2.2504V22.5432C1.78748 23.7838 2.75798 24.7936 3.95132 24.7936H12.0634H14.0857C14.1826 24.9281 14.2851 25.0584 14.403 25.1751C14.9139 25.6832 15.6021 26 16.3636 26C17.7351 26 16.3001 26 18.1134 26C18.8739 26 19.5637 25.6832 20.0747 25.1751C20.6701 24.5842 20.9581 23.8075 20.9581 23.0414V20.9199C21.7838 20.7389 22.4915 20.1856 22.8885 19.3942C23.3805 18.4137 23.3082 17.2407 22.699 16.3333ZM8.66143 21.9708H4.45162V2.82277H13.3975V5.29866C13.3975 6.18068 14.0873 6.89847 14.9358 6.89847H17.3169V10.4137H17.3039V10.4157C16.4033 10.3938 15.4947 10.8015 14.9139 11.6581L11.7779 16.3333C11.1686 17.2406 11.0962 18.4137 11.5884 19.3942C11.9853 20.1856 12.693 20.7389 13.5188 20.9199V21.9707H12.9948H8.66143V21.9708ZM20.8938 18.3113C20.7904 18.5161 20.5887 18.6434 20.3674 18.6434H20.3666H18.7078V23.0415C18.7078 23.3824 18.441 23.6591 18.1141 23.6591H18.1133H16.3635H16.3626C16.0356 23.6591 15.7688 23.3824 15.7688 23.0415V18.6434H14.1101H14.1093C13.888 18.6434 13.6862 18.5161 13.583 18.3113C13.4805 18.1066 13.4951 17.8617 13.6228 17.6721L16.7506 13.0084C16.8621 12.8431 17.0444 12.7445 17.2379 12.7445H17.2388C17.4324 12.7445 17.6146 12.8431 17.726 13.0084L20.8539 17.6721C20.9815 17.8617 20.9962 18.1066 20.8938 18.3113Z" fill="#e1ffff"/>
</g>
<defs>
<clipPath id="clip0_13_20">
<rect width="25" height="26" fill="white"/>
</clipPath>
</defs>
</svg>
